<svg width="147" height="49" fill="none" xmlns="http://www.w3.org/2000/svg"><g clip-path="url(#a)" fill="#fff"><path fill-rule="evenodd" clip-rule="evenodd" d="M36.852 21.895v5.21c0 .407.325.732.65.65h8.705c1.383 0 2.359 1.303 2.034 2.687C45.556 41.105 35.957 49 24.486 49 10.82 49-.163 37.85 0 24.174.163 10.663 11.47-.244 24.893 0c11.308.163 20.744 8.058 23.348 18.558.406 1.384-.651 2.686-2.034 2.686h-8.705a.642.642 0 0 0-.65.651ZM28.147 28h7.81c.65 0 1.057.57.813 1.058-1.87 4.965-6.67 8.547-12.284 8.547-7.321 0-13.26-6.023-13.097-13.349.163-6.837 5.613-12.535 12.447-12.86 5.857-.326 10.982 3.255 12.934 8.465.163.57-.244 1.14-.813 1.14h-7.81a.642.642 0 0 1-.65-.652v-2.686c0-1.14-1.384-1.71-2.197-.977l-7.24 6.675c-.651.65-.651 1.709 0 2.279l7.24 6.674c.813.733 2.196.163 2.196-.977v-2.686c0-.325.244-.65.651-.65Z"/><path d="M59.06 24.5c0-5.698 4.393-9.768 10.413-9.768 3.58 0 6.346 1.303 8.217 3.582a.248.248 0 0 1 0 .325l-3.58 3.256a.247.247 0 0 1-.325 0c-1.058-1.302-2.36-1.953-3.905-1.953-2.603 0-4.393 1.79-4.393 4.64 0 2.848 1.79 4.639 4.393 4.639 1.627 0 2.847-.733 3.905-1.954a.247.247 0 0 1 .325 0l3.58 3.256a.248.248 0 0 1 0 .326c-1.871 2.279-4.637 3.581-8.217 3.581-6.02-.163-10.413-4.151-10.413-9.93ZM92.414 30.604h-7.078l-1.22 3.093c0 .082-.163.163-.244.163h-5.857c-.163 0-.326-.163-.244-.325l7.972-18.151c0-.082.163-.163.244-.163h5.857c.082 0 .163.081.244.162l7.973 18.152c.081.162-.082.325-.244.325h-5.939c-.081 0-.163-.081-.244-.163l-1.22-3.093Zm-1.709-4.558-1.79-4.72-1.87 4.72h3.66ZM100.631 32.152l1.952-4.396c1.79 1.058 4.068 1.71 6.183 1.71 1.789 0 2.44-.407 2.44-.977 0-2.36-10.331-.489-10.331-7.407 0-3.5 2.928-6.268 8.704-6.268 2.441 0 4.962.489 6.834 1.547.081.081.162.163.081.325l-1.708 4.152c-.082.162-.163.162-.326.081-1.79-.895-3.417-1.302-4.962-1.302-1.871 0-2.441.57-2.441 1.14 0 2.278 10.332.406 10.332 7.243 0 3.42-2.929 6.268-8.705 6.268-3.01 0-6.101-.733-7.972-1.79-.163-.082-.163-.163-.081-.326ZM137.645 15.465v18.151c0 .163-.082.244-.244.244h-5.776c-.163 0-.244-.081-.244-.244v-6.674h-5.776v6.674c0 .163-.082.244-.244.244h-5.776c-.163 0-.244-.081-.244-.244V15.465c0-.163.081-.244.244-.244h5.776c.162 0 .244.081.244.244v6.349h5.776v-6.35c0-.162.081-.243.244-.243h5.776c.162 0 .244.081.244.244ZM140.004 30.686c0-2.035 1.546-3.418 3.498-3.418 1.952 0 3.498 1.383 3.498 3.418s-1.546 3.5-3.498 3.5a3.473 3.473 0 0 1-3.498-3.5Z"/></g><defs><clipPath id="a"><path fill="#fff" d="M0 0h147v49H0z"/></clipPath></defs></svg>